<svg width="240" height="234" viewBox="0 0 240 234" fill="none" xmlns="http://www.w3.org/2000/svg">
<path d="M152.186 52.6235H87.5902C86.1182 52.6253 84.707 53.2109 83.6661 54.2517C82.6252 55.2926 82.0397 56.7038 82.0379 58.1759V201.741L81.2976 201.967L65.4512 206.819C64.7002 207.048 63.889 206.97 63.1957 206.602C62.5024 206.233 61.9837 205.605 61.7534 204.854L14.6176 50.8875C14.3882 50.1365 14.4664 49.3251 14.835 48.6317C15.2035 47.9383 15.8323 47.4196 16.5832 47.1896L41.0024 39.7125L111.795 18.0435L136.214 10.5664C136.586 10.452 136.976 10.412 137.363 10.4488C137.75 10.4855 138.126 10.5982 138.47 10.7804C138.813 10.9626 139.117 11.2108 139.365 11.5107C139.612 11.8106 139.798 12.1564 139.912 12.5282L151.96 51.8832L152.186 52.6235Z" fill="#F2F2F2"/>
<path d="M166.282 51.8832L151.76 4.45138C151.519 3.66108 151.124 2.92613 150.598 2.28853C150.072 1.65092 149.426 1.12317 148.696 0.735413C147.967 0.347659 147.168 0.107503 146.345 0.028679C145.522 -0.0501453 144.692 0.0339063 143.902 0.276022L109.57 10.7848L38.7815 32.4574L4.44951 42.9698C2.85463 43.4596 1.51921 44.5621 0.736383 46.0354C-0.0464459 47.5087 -0.21273 49.2325 0.274038 50.8283L49.9046 212.931C50.3 214.219 51.0979 215.346 52.1811 216.148C53.2644 216.949 54.576 217.382 55.9234 217.384C56.5471 217.384 57.1672 217.29 57.763 217.106L81.2976 209.903L82.0379 209.673V208.9L81.2976 209.126L57.5447 216.399C56.1369 216.828 54.6164 216.681 53.3167 215.991C52.0169 215.301 51.0442 214.123 50.6117 212.716L0.984889 50.6099C0.770602 49.9128 0.695917 49.1804 0.765109 48.4544C0.834301 47.7285 1.046 47.0233 1.38811 46.3793C1.73022 45.7353 2.196 45.1651 2.75879 44.7014C3.32157 44.2377 3.9703 43.8895 4.66783 43.6768L38.9998 33.1644L109.789 11.4955L144.121 0.983027C144.65 0.821565 145.2 0.739238 145.753 0.738723C146.94 0.741388 148.095 1.12411 149.049 1.83084C150.003 2.53757 150.705 3.53116 151.054 4.66608L165.508 51.8832L165.738 52.6235H166.508L166.282 51.8832Z" fill="#3F3D56"/>
<path d="M45.4089 47.3106C44.6955 47.3101 44.001 47.081 43.4273 46.6569C42.8537 46.2327 42.431 45.6359 42.2214 44.954L37.4536 29.3809C37.3255 28.9625 37.2811 28.5231 37.3228 28.0876C37.3646 27.6521 37.4917 27.2291 37.6969 26.8427C37.9022 26.4563 38.1815 26.1142 38.519 25.8358C38.8565 25.5574 39.2456 25.3482 39.6639 25.2202L104.789 5.2822C105.634 5.0244 106.546 5.11233 107.326 5.52668C108.106 5.94103 108.69 6.64795 108.95 7.4923L113.717 23.0656C113.975 23.9104 113.887 24.823 113.473 25.603C113.058 26.383 112.352 26.9669 111.507 27.2264L46.3822 47.1644C46.0668 47.2612 45.7388 47.3105 45.4089 47.3106Z" fill="#161719"/>
<path d="M70.3844 16.6372C74.4731 16.6372 77.7876 13.3227 77.7876 9.23412C77.7876 5.14548 74.4731 1.83099 70.3844 1.83099C66.2958 1.83099 62.9813 5.14548 62.9813 9.23412C62.9813 13.3227 66.2958 16.6372 70.3844 16.6372Z" fill="#161719"/>
<path d="M70.3843 13.922C72.9733 13.922 75.0722 11.8232 75.0722 9.23411C75.0722 6.64506 72.9733 4.54622 70.3843 4.54622C67.7952 4.54622 65.6964 6.64506 65.6964 9.23411C65.6964 11.8232 67.7952 13.922 70.3843 13.922Z" fill="white"/>
<path d="M223.067 215.492H97.9546C97.1204 215.491 96.3207 215.159 95.7308 214.57C95.141 213.98 94.8092 213.18 94.8082 212.346V62.4326C94.8092 61.5985 95.1409 60.7987 95.7308 60.2089C96.3206 59.619 97.1204 59.2872 97.9546 59.2863H223.067C223.901 59.2873 224.701 59.6191 225.291 60.2089C225.881 60.7988 226.213 61.5985 226.214 62.4326V212.346C226.213 213.18 225.881 213.98 225.291 214.57C224.701 215.159 223.901 215.491 223.067 215.492Z" fill="#E6E6E6"/>
<path d="M165.508 51.8832H87.5901C85.9219 51.8856 84.3228 52.5493 83.1432 53.7289C81.9636 54.9085 81.2998 56.5077 81.2975 58.1758V209.126L82.0378 208.9V58.1758C82.0396 56.7038 82.6251 55.2926 83.666 54.2517C84.7069 53.2108 86.1181 52.6253 87.5901 52.6235H165.738L165.508 51.8832ZM233.432 51.8832H87.5901C85.9219 51.8856 84.3228 52.5493 83.1432 53.7289C81.9636 54.9085 81.2998 56.5077 81.2975 58.1758V227.707C81.2998 229.376 81.9636 230.975 83.1432 232.154C84.3228 233.334 85.9219 233.998 87.5901 234H233.432C235.1 233.998 236.699 233.334 237.879 232.154C239.058 230.975 239.722 229.376 239.724 227.707V58.1758C239.722 56.5077 239.058 54.9085 237.879 53.7289C236.699 52.5493 235.1 51.8856 233.432 51.8832ZM238.984 227.707C238.982 229.179 238.397 230.591 237.356 231.631C236.315 232.672 234.904 233.258 233.432 233.26H87.5901C86.1181 233.258 84.7069 232.672 83.666 231.631C82.6251 230.591 82.0396 229.179 82.0378 227.707V58.1758C82.0396 56.7038 82.6251 55.2926 83.666 54.2517C84.7069 53.2108 86.1181 52.6253 87.5901 52.6235H233.432C234.904 52.6253 236.315 53.2108 237.356 54.2517C238.397 55.2926 238.982 56.7038 238.984 58.1758V227.707Z" fill="#3F3D56"/>
<path d="M194.565 68.1701H126.457C125.573 68.1691 124.727 67.8178 124.102 67.1932C123.478 66.5687 123.126 65.7219 123.125 64.8387V48.5518C123.126 47.6685 123.478 46.8218 124.102 46.1972C124.727 45.5727 125.573 45.2214 126.457 45.2204H194.565C195.449 45.2214 196.295 45.5727 196.92 46.1972C197.544 46.8218 197.896 47.6685 197.897 48.5518V64.8387C197.896 65.7219 197.544 66.5687 196.92 67.1932C196.295 67.8178 195.449 68.1691 194.565 68.1701Z" fill="#161719"/>
<path d="M160.511 46.3308C164.6 46.3308 167.914 43.0164 167.914 38.9277C167.914 34.8391 164.6 31.5246 160.511 31.5246C156.422 31.5246 153.108 34.8391 153.108 38.9277C153.108 43.0164 156.422 46.3308 160.511 46.3308Z" fill="#161719"/>
<path d="M160.511 43.4369C163.001 43.4369 165.02 41.4181 165.02 38.9277C165.02 36.4374 163.001 34.4185 160.511 34.4185C158.021 34.4185 156.002 36.4374 156.002 38.9277C156.002 41.4181 158.021 43.4369 160.511 43.4369Z" fill="white"/>
</svg>
